<svg width="50" height="50" viewBox="0 0 50 50" fill="none" xmlns="http://www.w3.org/2000/svg">
<rect width="50" height="50" rx="25" fill="#262626"/>
<path d="M20.6964 31.9352C20.6964 32.0427 20.5758 32.1287 20.4238 32.1287C20.2508 32.1448 20.1302 32.0588 20.1302 31.9352C20.1302 31.8276 20.2508 31.7416 20.4028 31.7416C20.5601 31.7255 20.6964 31.8115 20.6964 31.9352ZM19.0661 31.6932C19.0294 31.8008 19.1343 31.9244 19.2915 31.9567C19.4278 32.0104 19.5851 31.9567 19.6165 31.8491C19.648 31.7416 19.5484 31.618 19.3911 31.5696C19.2548 31.5319 19.1028 31.5857 19.0661 31.6932ZM21.3831 31.6018C21.231 31.6395 21.1262 31.7416 21.1419 31.8653C21.1577 31.9728 21.294 32.0427 21.4512 32.0051C21.6032 31.9674 21.7081 31.8653 21.6923 31.7577C21.6766 31.6556 21.5351 31.5857 21.3831 31.6018ZM24.8323 11C17.5617 11 12 16.6612 12 24.1181C12 30.0804 15.6589 35.1824 20.8851 36.9781C21.556 37.1017 21.7919 36.677 21.7919 36.3276C21.7919 35.9942 21.7762 34.1556 21.7762 33.0265C21.7762 33.0265 18.1069 33.833 17.3363 31.4244C17.3363 31.4244 16.7387 29.8599 15.879 29.4567C15.879 29.4567 14.6786 28.6126 15.9629 28.6288C15.9629 28.6288 17.2681 28.7363 17.9863 30.0158C19.1343 32.0911 21.0581 31.4943 21.8077 31.1395C21.9282 30.2793 22.269 29.6825 22.6464 29.3277C19.7161 28.9943 16.7597 28.5589 16.7597 23.3869C16.7597 21.9084 17.1581 21.1665 17.9968 20.2203C17.8605 19.8708 17.4149 18.43 18.1331 16.5698C19.2286 16.2203 21.75 18.0214 21.75 18.0214C22.7984 17.7203 23.9254 17.5644 25.0419 17.5644C26.1585 17.5644 27.2855 17.7203 28.3339 18.0214C28.3339 18.0214 30.8552 16.215 31.9508 16.5698C32.669 18.4354 32.2234 19.8708 32.0871 20.2203C32.9258 21.1719 33.4395 21.9138 33.4395 23.3869C33.4395 28.575 30.352 28.989 27.4218 29.3277C27.904 29.7524 28.3129 30.5588 28.3129 31.8223C28.3129 33.6341 28.2972 35.876 28.2972 36.3168C28.2972 36.6663 28.5383 37.091 29.204 36.9673C34.446 35.1824 38 30.0804 38 24.1181C38 16.6612 32.1028 11 24.8323 11ZM17.0952 29.5427C17.027 29.5965 17.0427 29.7201 17.1319 29.8223C17.2157 29.9083 17.3363 29.9459 17.4044 29.8761C17.4726 29.8223 17.4569 29.6986 17.3677 29.5965C17.2839 29.5105 17.1633 29.4728 17.0952 29.5427ZM16.529 29.1072C16.4923 29.1771 16.5448 29.2632 16.6496 29.3169C16.7335 29.3707 16.8383 29.3546 16.875 29.2793C16.9117 29.2094 16.8593 29.1234 16.7544 29.0696C16.6496 29.0374 16.5657 29.0535 16.529 29.1072ZM18.2274 31.0212C18.1435 31.0911 18.175 31.2524 18.2956 31.3545C18.4161 31.4782 18.5681 31.4943 18.6363 31.4083C18.7044 31.3384 18.673 31.1771 18.5681 31.075C18.4528 30.9513 18.2956 30.9352 18.2274 31.0212ZM17.6298 30.2309C17.546 30.2846 17.546 30.4244 17.6298 30.5481C17.7137 30.6717 17.8552 30.7255 17.9234 30.6717C18.0073 30.6018 18.0073 30.4621 17.9234 30.3384C17.85 30.2148 17.7137 30.161 17.6298 30.2309Z" fill="white"/>
</svg>
