<svg width="50" height="50" viewBox="0 0 50 50" fill="none" xmlns="http://www.w3.org/2000/svg">
<rect width="50" height="50" rx="25" fill="#262626"/>
<path d="M19.6839 33.2501H15.693V20.3981H19.6839V33.2501ZM17.6863 18.645C16.4101 18.645 15.375 17.5879 15.375 16.3118C15.375 15.6988 15.6185 15.1109 16.052 14.6774C16.4854 14.244 17.0733 14.0005 17.6863 14.0005C18.2993 14.0005 18.8872 14.244 19.3206 14.6774C19.7541 15.1109 19.9976 15.6988 19.9976 16.3118C19.9976 17.5879 18.962 18.645 17.6863 18.645ZM34.6207 33.2501H30.6384V26.9938C30.6384 25.5028 30.6083 23.5907 28.5634 23.5907C26.4884 23.5907 26.1705 25.2106 26.1705 26.8864V33.2501H22.1838V20.3981H26.0115V22.1512H26.0673C26.6002 21.1415 27.9017 20.0758 29.8434 20.0758C33.8825 20.0758 34.625 22.7356 34.625 26.1903V33.2501H34.6207Z" fill="white"/>
</svg>
