<svg width="50" height="50" viewBox="0 0 50 50" fill="none" xmlns="http://www.w3.org/2000/svg">
<rect width="50" height="50" rx="25" fill="#262626"/>
<path d="M14 20.0714L23.6433 27.21C24.045 27.5076 24.5171 27.6664 25 27.6664C25.4829 27.6664 25.955 27.5076 26.3567 27.21L36 20.0714M16.4444 35H33.5556C34.2039 35 34.8256 34.714 35.284 34.205C35.7425 33.696 36 33.0056 36 32.2857V18.7143C36 17.9944 35.7425 17.304 35.284 16.795C34.8256 16.286 34.2039 16 33.5556 16H16.4444C15.7961 16 15.1744 16.286 14.716 16.795C14.2575 17.304 14 17.9944 14 18.7143V32.2857C14 33.0056 14.2575 33.696 14.716 34.205C15.1744 34.714 15.7961 35 16.4444 35Z" stroke="white" stroke-width="1.5" stroke-linecap="round" stroke-linejoin="round"/>
</svg>
