<svg width="50" height="50" viewBox="0 0 50 50" fill="none" xmlns="http://www.w3.org/2000/svg">
<rect width="50" height="50" rx="25" fill="#262626"/>
<path d="M16 22V20C16 17 18 15 21 15H31C34 15 36 17 36 20V22M16 28V30C16 33 18 35 21 35H31C34 35 36 33 36 30V28M20.7 22.26L26 25.33L31.26 22.28M26 30.77V25.32M24.76 19.29L21.56 21.07C20.84 21.47 20.24 22.48 20.24 23.31V26.7C20.24 27.53 20.83 28.54 21.56 28.94L24.76 30.72C25.44 31.1 26.56 31.1 27.25 30.72L30.45 28.94C31.17 28.54 31.77 27.53 31.77 26.7V23.31C31.77 22.48 31.18 21.47 30.45 21.07L27.25 19.29C26.56 18.9 25.44 18.9 24.76 19.29Z" stroke="white" stroke-width="1.5" stroke-linecap="round" stroke-linejoin="round"/>
</svg>
